<svg width="1920" height="245" viewBox="0 0 1920 245" fill="none" xmlns="http://www.w3.org/2000/svg">
<path opacity="0.3" fill-rule="evenodd" clip-rule="evenodd" d="M155.438 241.821H-39.6875L74.2218 194.036H246.533L155.438 241.821ZM250.633 191.885H79.349L168.035 154.681H321.556L250.633 191.885ZM251.163 194.036L160.068 241.821H356.245L424.616 194.036H251.163ZM557.238 241.821H360L428.371 194.036H602.806L557.238 241.821ZM560.21 241.821H757.882L780.664 194.036H605.778L560.21 241.821ZM958.414 241.821H760.264L783.047 194.036H958.414V241.821ZM960.565 241.821H1158.68L1135.9 194.036H960.565V241.821ZM1358.77 241.821H1161.06L1138.28 194.036H1313.2L1358.77 241.821ZM1361.75 241.821H1558.77L1490.42 194.036H1316.18L1361.75 241.821ZM1758.74 241.821H1562.52L1494.18 194.036H1667.61L1758.74 241.821ZM1763.38 241.821H1958.63L1844.72 194.036H1672.24L1763.38 241.821ZM1668.14 191.885H1839.59L1750.91 154.681H1597.19L1668.14 191.885ZM1663.51 191.885L1592.56 154.681H1437.89L1491.1 191.885H1663.51ZM1588.45 152.53H1434.81L1392.38 122.862H1531.87L1588.45 152.53ZM1593.09 152.53H1745.78L1675.06 122.862H1536.5L1593.09 152.53ZM1532.4 120.711H1669.93L1612.49 96.6147H1486.45L1532.4 120.711ZM1527.77 120.711H1389.3L1354.84 96.6147H1481.81L1527.77 120.711ZM1477.71 94.4638H1351.76L1323.33 74.5833H1439.8L1477.71 94.4638ZM1482.34 94.4638L1444.43 74.5833H1559.97L1607.36 94.4638H1482.34ZM1440.33 72.4325H1554.85L1515.28 55.8346H1408.67L1440.33 72.4325ZM1435.7 72.4325L1404.04 55.8346H1296.51L1320.25 72.4325H1435.7ZM1404.57 53.6838H1510.15L1476.76 39.6752H1377.85L1404.57 53.6838ZM1373.22 39.6752L1399.94 53.6838H1293.43L1273.4 39.6752H1373.22ZM1369.12 37.5243H1270.32L1253.29 25.6151H1346.41L1369.12 37.5243ZM1373.75 37.5243H1471.63L1443.25 25.6151H1351.04L1373.75 37.5243ZM1346.94 23.4642H1438.12L1413.8 13.2606H1327.48L1346.94 23.4642ZM1322.85 13.2606H1235.62L1250.21 23.4642H1342.31L1322.85 13.2606ZM1318.74 11.1097H1232.54L1219.98 2.32788H1302L1318.74 11.1097ZM1323.38 11.1097H1408.67L1387.73 2.32788H1306.63L1323.38 11.1097ZM1434.13 154.681L1487.35 191.885H1314.13L1278.65 154.681H1434.13ZM1276.6 152.53H1431.06L1388.62 122.862H1248.3L1276.6 152.53ZM1246.25 120.711H1385.55L1351.08 96.6147H1223.27L1246.25 120.711ZM1221.22 94.4638H1348.01L1319.57 74.5833H1202.26L1221.22 94.4638ZM1200.21 72.4325H1316.5L1292.76 55.8346H1184.39L1200.21 72.4325ZM1182.33 53.6838H1289.68L1269.64 39.6752H1168.98L1182.33 53.6838ZM1249.53 25.6151L1266.57 37.5243H1166.92L1155.57 25.6151H1249.53ZM1246.46 23.4642L1231.86 13.2606H1143.79L1153.52 23.4642H1246.46ZM1228.79 11.1097L1216.23 2.32788H1133.36L1141.73 11.1097H1228.79ZM1275.68 154.681H1119.52L1137.26 191.885H1311.15L1275.68 154.681ZM1273.62 152.53H1118.49L1104.35 122.862H1245.33L1273.62 152.53ZM1243.28 120.711L1220.3 96.6147H1091.84L1103.32 120.711H1243.28ZM1199.29 74.5833L1218.25 94.4638H1090.81L1081.33 74.5833H1199.29ZM1181.41 55.8346L1197.24 72.4325H1080.31L1072.39 55.8346H1181.41ZM1166 39.6752L1179.36 53.6838H1071.37L1064.69 39.6752H1166ZM1163.95 37.5243H1063.66L1057.99 25.6151H1152.6L1163.95 37.5243ZM1150.54 23.4642H1056.96L1052.1 13.2606H1140.81L1150.54 23.4642ZM1138.76 11.1097H1051.07L1046.88 2.32788H1130.39L1138.76 11.1097ZM960.565 154.681H1117.14L1134.87 191.885H960.565V154.681ZM960.565 152.53H1116.11L1101.97 122.862H960.565V152.53ZM960.565 96.6147H1089.45L1100.94 120.711H960.565V96.6147ZM960.565 94.4638H1088.43L1078.95 74.5833H960.565V94.4638ZM960.565 55.8346H1070.01L1077.92 72.4325H960.565V55.8346ZM960.565 53.6838H1068.98L1062.31 39.6752H960.565V53.6838ZM1055.6 25.6151L1061.28 37.5243H960.565V25.6151H1055.6ZM1054.58 23.4642L1049.71 13.2606H960.565V23.4642H1054.58ZM1048.69 11.1097L1044.5 2.32788H960.565V11.1097H1048.69ZM958.414 154.681H801.809L784.072 191.885H958.414V154.681ZM958.414 152.53H802.835L816.979 122.862H958.414V152.53ZM958.414 96.6147H829.493L818.005 120.711H958.414V96.6147ZM958.414 94.4638H830.519L839.997 74.5833H958.414V94.4638ZM958.414 55.8346H848.935L841.022 72.4325H958.414V55.8346ZM958.414 53.6838H849.961L856.64 39.6752H958.414V53.6838ZM958.414 25.6151H863.343L857.665 37.5243H958.414V25.6151ZM958.414 13.2606V23.4642H864.368L869.233 13.2606H958.414ZM958.414 2.32788V11.1097H870.259L874.445 2.32788H958.414ZM643.308 154.681H799.426L781.689 191.885H607.83L643.308 154.681ZM645.359 152.53H800.452L814.596 122.862H673.651L645.359 152.53ZM828.136 94.4638L837.614 74.5833H719.691L700.732 94.4638H828.136ZM838.639 72.4325L846.553 55.8346H737.57L721.742 72.4325H838.639ZM847.578 53.6838L854.257 39.6752H752.98L739.621 53.6838H847.578ZM855.282 37.5243L860.96 25.6151H766.388L755.031 37.5243H855.282ZM861.986 23.4642L866.85 13.2606H778.169L768.439 23.4642H861.986ZM867.876 11.1097L872.063 2.32788H788.595L780.22 11.1097H867.876ZM815.622 120.711L827.11 96.6147H698.681L675.702 120.711H815.622ZM640.336 154.681H484.68L431.448 191.885H604.857L640.336 154.681ZM670.679 122.862L642.387 152.53H487.757L530.206 122.862H670.679ZM695.709 96.6147L672.73 120.711H533.284L567.762 96.6147H695.709ZM716.718 74.5833L697.76 94.4638H570.839L599.284 74.5833H716.718ZM734.598 55.8346L718.77 72.4325H602.362L626.11 55.8346H734.598ZM750.008 39.6752L736.649 53.6838H629.187L649.231 39.6752H750.008ZM763.415 25.6151L752.059 37.5243H652.308L669.348 25.6151H763.415ZM775.197 13.2606L765.467 23.4642H672.425L687.025 13.2606H775.197ZM785.623 2.32788L777.248 11.1097H690.102L702.667 2.32788H785.623ZM484.003 152.53L526.452 122.862H386.843L330.286 152.53H484.003ZM529.529 120.711L564.007 96.6147H436.88L390.944 120.711H529.529ZM567.084 94.4638L595.529 74.5833H478.879L440.98 94.4638H567.084ZM598.607 72.4325L622.355 55.8346H514.621L482.979 72.4325H598.607ZM625.433 53.6838L645.476 39.6752H545.426L518.721 53.6838H625.433ZM648.554 37.5243L665.593 25.6151H572.229L549.526 37.5243H648.554ZM668.671 23.4642L683.27 13.2606H595.781L576.329 23.4642H668.671ZM686.348 11.1097L698.913 2.32788H616.622L599.881 11.1097H686.348ZM427.694 191.885L480.925 154.681H326.186L255.263 191.885H427.694ZM432.25 96.6147L386.313 120.711H249.011L306.453 96.6147H432.25ZM474.249 74.5833L436.35 94.4638H311.58L358.971 74.5833H474.249ZM509.99 55.8346L478.349 72.4325H364.098L403.664 55.8346H509.99ZM540.796 39.6752L514.091 53.6838H408.791L442.185 39.6752H540.796ZM567.599 25.6151L544.896 37.5243H447.312L475.701 25.6151H567.599ZM591.151 13.2606L571.699 23.4642H480.828L505.151 13.2606H591.151ZM611.992 2.32788L595.251 11.1097H510.279L531.213 2.32788H611.992ZM616.092 0.177001H530.775L-50.3701 243.972H1969.32L1388.37 0.263032L1388.16 0.177001H616.129L616.121 0.161865L616.092 0.177001ZM382.213 122.862L325.656 152.53H173.162L243.884 122.862H382.213Z" fill="url(#paint0_linear_1_876)"/>
<line x1="-50.3618" y1="243.497" x2="1970.7" y2="243.497" stroke="url(#paint1_linear_1_876)" stroke-width="2"/>
<defs>
<linearGradient id="paint0_linear_1_876" x1="959.474" y1="0.161865" x2="959.474" y2="254.682" gradientUnits="userSpaceOnUse">
<stop stop-color="#7A4C3C" stop-opacity="0"/>
<stop offset="0.9999" stop-color="#F9C9B8"/>
</linearGradient>
<linearGradient id="paint1_linear_1_876" x1="-50.3618" y1="244.497" x2="1970.7" y2="244.497" gradientUnits="userSpaceOnUse">
<stop stop-color="#191919"/>
<stop offset="0.505208" stop-color="#DED5CD"/>
<stop offset="1" stop-color="#191919"/>
</linearGradient>
</defs>
</svg>
