<svg width="1543" height="210" viewBox="0 0 1543 210" fill="none" xmlns="http://www.w3.org/2000/svg">
<mask id="path-1-inside-1_1_874" fill="white">
<path d="M77.3984 144.092C105.744 144.092 119.172 127.184 123.15 112.513L129.366 113.756C126.134 133.897 115.442 162.741 69.9389 162.741C24.9332 162.741 0.0682072 131.162 0.0682072 79.4428C0.0682072 31.4533 26.4251 0.12345 69.6902 0.12345C117.928 0.12345 128.123 31.4533 128.123 62.5346V67.5076L100.026 64.7724C102.015 57.5616 103.009 50.848 103.009 43.8858C103.009 22.2533 90.0795 13.7992 72.674 13.7992C49.0523 13.7992 24.9332 28.7182 24.9332 79.4428C24.9332 119.475 45.0739 144.092 77.3984 144.092ZM198.695 46.3723C232.76 46.3723 252.403 69.2481 252.403 104.556C252.403 139.865 232.76 162.741 198.695 162.741C164.63 162.741 144.986 139.865 144.986 104.556C144.986 69.2481 164.63 46.3723 198.695 46.3723ZM198.695 150.805C219.333 150.805 227.041 130.913 227.041 104.556C227.041 78.1996 219.333 58.3075 198.695 58.3075C178.057 58.3075 170.349 78.1996 170.349 104.556C170.349 130.913 178.057 150.805 198.695 150.805ZM438.51 87.6482V143.595C438.51 152.546 442.24 154.535 449.948 154.535V161H403.202V154.535C410.91 154.535 414.64 152.546 414.64 143.595V92.1239C414.64 70.4914 411.159 60.0481 396.737 60.0481C382.564 60.0481 368.888 72.4806 368.888 116.243V143.595C368.888 152.546 372.618 154.535 380.326 154.535V161H333.58V154.535C341.288 154.535 345.018 152.546 345.018 143.595V92.1239C345.018 71.2373 341.785 60.0481 327.115 60.0481C314.931 60.0481 300.758 68.9995 300.758 116.243V143.595C300.758 152.546 304.488 154.535 312.196 154.535V161H265.45V154.535C273.158 154.535 276.888 152.546 276.888 143.595V66.0157C276.888 57.0643 273.158 55.0751 265.45 55.0751V48.6102H300.758V77.7022H301.255C302.996 64.2751 311.699 46.3723 335.569 46.3723C355.212 46.3723 366.153 57.5616 368.391 78.6968H369.385C371.375 62.2859 382.066 46.3723 403.948 46.3723C427.569 46.3723 438.51 61.0427 438.51 87.6482ZM526.802 46.3723C551.418 46.3723 572.056 58.8048 572.056 104.556C572.056 150.308 551.418 162.741 526.802 162.741C507.905 162.741 494.726 150.059 490.499 136.881V209.238H455.191V202.773C462.899 202.773 466.629 200.784 466.629 191.833V66.0157C466.629 57.0643 462.899 55.0751 455.191 55.0751V48.6102H490.499V70.4914C494.478 58.0589 507.656 46.3723 526.802 46.3723ZM520.586 150.805C542.218 150.805 546.694 130.913 546.694 104.556C546.694 78.4482 541.721 58.3075 520.586 58.3075C506.661 58.3075 490.499 68.2535 490.499 104.556C490.499 140.859 506.661 150.805 520.586 150.805ZM676.437 99.8321V143.595C676.437 152.546 680.167 154.535 687.875 154.535V161H655.55V129.421H654.804C651.572 145.584 642.869 162.741 620.242 162.741C598.858 162.741 586.923 150.557 586.923 124.448C586.923 118.481 587.918 110.275 590.653 103.811L654.307 96.8483V92.6213C654.307 70.7401 647.345 58.3075 631.929 58.3075C618.75 58.3075 612.534 66.2643 612.534 76.7076C612.534 79.6914 613.031 82.178 613.777 84.9131V85.6591L592.145 87.6482C591.647 86.1563 590.155 82.178 590.155 77.9509C590.155 60.0481 606.815 46.3723 633.172 46.3723C674.696 46.3723 676.437 76.9563 676.437 99.8321ZM625.961 149.065C639.388 149.065 651.572 135.14 653.81 104.059L612.037 112.513C610.545 116.243 609.799 121.713 609.799 127.184C609.799 140.113 615.02 149.065 625.961 149.065ZM770.677 47.1183C779.629 47.1183 788.083 50.5994 792.31 57.0643L784.104 79.9401L781.369 79.1941C781.618 72.2319 775.899 65.2697 765.953 65.2697C751.034 65.2697 737.11 78.9455 737.11 127.681V143.595C737.11 152.546 740.839 154.535 748.547 154.535V161H701.801V154.535C709.509 154.535 713.239 152.546 713.239 143.595V66.0157C713.239 57.0643 709.509 55.0751 701.801 55.0751V48.6102H737.11V88.3942H737.607C740.839 69.7454 749.045 47.1183 770.677 47.1183ZM894.585 127.432L899.558 129.421C895.579 141.357 884.639 162.741 855.795 162.741C822.973 162.741 801.092 143.097 801.092 104.059C801.092 66.0157 821.233 46.3723 852.811 46.3723C882.401 46.3723 898.314 63.2806 898.314 90.8807C898.314 96.1023 898.314 99.0861 897.817 103.065L823.968 105.302C824.714 133.897 838.638 148.816 861.514 148.816C881.406 148.816 890.358 136.135 894.585 127.432ZM853.557 58.3075C837.644 58.3075 825.709 68.9995 824.217 97.097L874.693 93.1186C875.439 89.8861 875.936 86.405 875.936 82.178C875.936 69.4968 867.73 58.3075 853.557 58.3075ZM1045.29 144.092C1073.63 144.092 1087.06 127.184 1091.04 112.513L1097.26 113.756C1094.02 133.897 1083.33 162.741 1037.83 162.741C992.823 162.741 967.958 131.162 967.958 79.4428C967.958 31.4533 994.315 0.12345 1037.58 0.12345C1085.82 0.12345 1096.01 31.4533 1096.01 62.5346V67.5076L1067.92 64.7724C1069.9 57.5616 1070.9 50.848 1070.9 43.8858C1070.9 22.2533 1057.97 13.7992 1040.56 13.7992C1016.94 13.7992 992.823 28.7182 992.823 79.4428C992.823 119.475 1012.96 144.092 1045.29 144.092ZM1203.6 99.8321V143.595C1203.6 152.546 1207.33 154.535 1215.04 154.535V161H1182.72V129.421H1181.97C1178.74 145.584 1170.04 162.741 1147.41 162.741C1126.03 162.741 1114.09 150.557 1114.09 124.448C1114.09 118.481 1115.08 110.275 1117.82 103.811L1181.47 96.8483V92.6213C1181.47 70.7401 1174.51 58.3075 1159.1 58.3075C1145.92 58.3075 1139.7 66.2643 1139.7 76.7076C1139.7 79.6914 1140.2 82.178 1140.94 84.9131V85.6591L1119.31 87.6482C1118.81 86.1563 1117.32 82.178 1117.32 77.9509C1117.32 60.0481 1133.98 46.3723 1160.34 46.3723C1201.86 46.3723 1203.6 76.9563 1203.6 99.8321ZM1153.13 149.065C1166.56 149.065 1178.74 135.14 1180.98 104.059L1139.2 112.513C1137.71 116.243 1136.97 121.713 1136.97 127.184C1136.97 140.113 1142.19 149.065 1153.13 149.065ZM1297.84 47.1183C1306.8 47.1183 1315.25 50.5994 1319.48 57.0643L1311.27 79.9401L1308.54 79.1941C1308.79 72.2319 1303.07 65.2697 1293.12 65.2697C1278.2 65.2697 1264.28 78.9455 1264.28 127.681V143.595C1264.28 152.546 1268.01 154.535 1275.71 154.535V161H1228.97V154.535C1236.68 154.535 1240.41 152.546 1240.41 143.595V66.0157C1240.41 57.0643 1236.68 55.0751 1228.97 55.0751V48.6102H1264.28V88.3942H1264.77C1268.01 69.7454 1276.21 47.1183 1297.84 47.1183ZM1429.8 2.60995V143.595C1429.8 152.546 1433.53 154.535 1441.24 154.535V161H1405.93V136.881C1401.7 150.059 1388.53 162.741 1369.63 162.741C1345.01 162.741 1324.37 150.308 1324.37 104.556C1324.37 58.8048 1345.01 46.3723 1369.63 46.3723C1388.77 46.3723 1401.95 58.0589 1405.93 70.4914V20.0154C1405.93 11.064 1402.2 9.07485 1394.49 9.07485V2.60995H1429.8ZM1375.84 150.805C1389.77 150.805 1405.93 140.859 1405.93 104.556C1405.93 68.2535 1389.77 58.3075 1375.84 58.3075C1354.71 58.3075 1349.74 78.4482 1349.74 104.556C1349.74 130.913 1354.21 150.805 1375.84 150.805ZM1496 90.632L1515.15 95.8537C1537.27 101.821 1542.5 115 1542.5 129.421C1542.5 158.016 1517.13 162.741 1498.98 162.741C1475.11 162.741 1461.69 152.795 1455.47 144.838V113.756H1459.7C1464.67 139.119 1478.34 150.805 1498.24 150.805C1512.16 150.805 1521.11 144.092 1521.11 131.659C1521.11 122.459 1515.64 116.989 1505.2 114.254L1483.07 108.535C1466.66 104.308 1457.96 94.8591 1457.96 80.686C1457.96 61.2913 1473.37 46.3723 1500.97 46.3723C1514.9 46.3723 1528.32 50.848 1537.03 58.3075L1539.51 87.6482L1535.29 88.1455C1528.32 69.2481 1518.38 58.3075 1500.97 58.3075C1488.79 58.3075 1479.34 65.0211 1479.34 75.2157C1479.34 82.6752 1482.07 86.9023 1496 90.632Z"/>
</mask>
<g filter="url(#filter0_i_1_874)">
<path d="M77.3984 144.092C105.744 144.092 119.172 127.184 123.15 112.513L129.366 113.756C126.134 133.897 115.442 162.741 69.9389 162.741C24.9332 162.741 0.0682072 131.162 0.0682072 79.4428C0.0682072 31.4533 26.4251 0.12345 69.6902 0.12345C117.928 0.12345 128.123 31.4533 128.123 62.5346V67.5076L100.026 64.7724C102.015 57.5616 103.009 50.848 103.009 43.8858C103.009 22.2533 90.0795 13.7992 72.674 13.7992C49.0523 13.7992 24.9332 28.7182 24.9332 79.4428C24.9332 119.475 45.0739 144.092 77.3984 144.092ZM198.695 46.3723C232.76 46.3723 252.403 69.2481 252.403 104.556C252.403 139.865 232.76 162.741 198.695 162.741C164.63 162.741 144.986 139.865 144.986 104.556C144.986 69.2481 164.63 46.3723 198.695 46.3723ZM198.695 150.805C219.333 150.805 227.041 130.913 227.041 104.556C227.041 78.1996 219.333 58.3075 198.695 58.3075C178.057 58.3075 170.349 78.1996 170.349 104.556C170.349 130.913 178.057 150.805 198.695 150.805ZM438.51 87.6482V143.595C438.51 152.546 442.24 154.535 449.948 154.535V161H403.202V154.535C410.91 154.535 414.64 152.546 414.64 143.595V92.1239C414.64 70.4914 411.159 60.0481 396.737 60.0481C382.564 60.0481 368.888 72.4806 368.888 116.243V143.595C368.888 152.546 372.618 154.535 380.326 154.535V161H333.58V154.535C341.288 154.535 345.018 152.546 345.018 143.595V92.1239C345.018 71.2373 341.785 60.0481 327.115 60.0481C314.931 60.0481 300.758 68.9995 300.758 116.243V143.595C300.758 152.546 304.488 154.535 312.196 154.535V161H265.45V154.535C273.158 154.535 276.888 152.546 276.888 143.595V66.0157C276.888 57.0643 273.158 55.0751 265.45 55.0751V48.6102H300.758V77.7022H301.255C302.996 64.2751 311.699 46.3723 335.569 46.3723C355.212 46.3723 366.153 57.5616 368.391 78.6968H369.385C371.375 62.2859 382.066 46.3723 403.948 46.3723C427.569 46.3723 438.51 61.0427 438.51 87.6482ZM526.802 46.3723C551.418 46.3723 572.056 58.8048 572.056 104.556C572.056 150.308 551.418 162.741 526.802 162.741C507.905 162.741 494.726 150.059 490.499 136.881V209.238H455.191V202.773C462.899 202.773 466.629 200.784 466.629 191.833V66.0157C466.629 57.0643 462.899 55.0751 455.191 55.0751V48.6102H490.499V70.4914C494.478 58.0589 507.656 46.3723 526.802 46.3723ZM520.586 150.805C542.218 150.805 546.694 130.913 546.694 104.556C546.694 78.4482 541.721 58.3075 520.586 58.3075C506.661 58.3075 490.499 68.2535 490.499 104.556C490.499 140.859 506.661 150.805 520.586 150.805ZM676.437 99.8321V143.595C676.437 152.546 680.167 154.535 687.875 154.535V161H655.55V129.421H654.804C651.572 145.584 642.869 162.741 620.242 162.741C598.858 162.741 586.923 150.557 586.923 124.448C586.923 118.481 587.918 110.275 590.653 103.811L654.307 96.8483V92.6213C654.307 70.7401 647.345 58.3075 631.929 58.3075C618.75 58.3075 612.534 66.2643 612.534 76.7076C612.534 79.6914 613.031 82.178 613.777 84.9131V85.6591L592.145 87.6482C591.647 86.1563 590.155 82.178 590.155 77.9509C590.155 60.0481 606.815 46.3723 633.172 46.3723C674.696 46.3723 676.437 76.9563 676.437 99.8321ZM625.961 149.065C639.388 149.065 651.572 135.14 653.81 104.059L612.037 112.513C610.545 116.243 609.799 121.713 609.799 127.184C609.799 140.113 615.02 149.065 625.961 149.065ZM770.677 47.1183C779.629 47.1183 788.083 50.5994 792.31 57.0643L784.104 79.9401L781.369 79.1941C781.618 72.2319 775.899 65.2697 765.953 65.2697C751.034 65.2697 737.11 78.9455 737.11 127.681V143.595C737.11 152.546 740.839 154.535 748.547 154.535V161H701.801V154.535C709.509 154.535 713.239 152.546 713.239 143.595V66.0157C713.239 57.0643 709.509 55.0751 701.801 55.0751V48.6102H737.11V88.3942H737.607C740.839 69.7454 749.045 47.1183 770.677 47.1183ZM894.585 127.432L899.558 129.421C895.579 141.357 884.639 162.741 855.795 162.741C822.973 162.741 801.092 143.097 801.092 104.059C801.092 66.0157 821.233 46.3723 852.811 46.3723C882.401 46.3723 898.314 63.2806 898.314 90.8807C898.314 96.1023 898.314 99.0861 897.817 103.065L823.968 105.302C824.714 133.897 838.638 148.816 861.514 148.816C881.406 148.816 890.358 136.135 894.585 127.432ZM853.557 58.3075C837.644 58.3075 825.709 68.9995 824.217 97.097L874.693 93.1186C875.439 89.8861 875.936 86.405 875.936 82.178C875.936 69.4968 867.73 58.3075 853.557 58.3075ZM1045.29 144.092C1073.63 144.092 1087.06 127.184 1091.04 112.513L1097.26 113.756C1094.02 133.897 1083.33 162.741 1037.83 162.741C992.823 162.741 967.958 131.162 967.958 79.4428C967.958 31.4533 994.315 0.12345 1037.58 0.12345C1085.82 0.12345 1096.01 31.4533 1096.01 62.5346V67.5076L1067.92 64.7724C1069.9 57.5616 1070.9 50.848 1070.9 43.8858C1070.9 22.2533 1057.97 13.7992 1040.56 13.7992C1016.94 13.7992 992.823 28.7182 992.823 79.4428C992.823 119.475 1012.96 144.092 1045.29 144.092ZM1203.6 99.8321V143.595C1203.6 152.546 1207.33 154.535 1215.04 154.535V161H1182.72V129.421H1181.97C1178.74 145.584 1170.04 162.741 1147.41 162.741C1126.03 162.741 1114.09 150.557 1114.09 124.448C1114.09 118.481 1115.08 110.275 1117.82 103.811L1181.47 96.8483V92.6213C1181.47 70.7401 1174.51 58.3075 1159.1 58.3075C1145.92 58.3075 1139.7 66.2643 1139.7 76.7076C1139.7 79.6914 1140.2 82.178 1140.94 84.9131V85.6591L1119.31 87.6482C1118.81 86.1563 1117.32 82.178 1117.32 77.9509C1117.32 60.0481 1133.98 46.3723 1160.34 46.3723C1201.86 46.3723 1203.6 76.9563 1203.6 99.8321ZM1153.13 149.065C1166.56 149.065 1178.74 135.14 1180.98 104.059L1139.2 112.513C1137.71 116.243 1136.97 121.713 1136.97 127.184C1136.97 140.113 1142.19 149.065 1153.13 149.065ZM1297.84 47.1183C1306.8 47.1183 1315.25 50.5994 1319.48 57.0643L1311.27 79.9401L1308.54 79.1941C1308.79 72.2319 1303.07 65.2697 1293.12 65.2697C1278.2 65.2697 1264.28 78.9455 1264.28 127.681V143.595C1264.28 152.546 1268.01 154.535 1275.71 154.535V161H1228.97V154.535C1236.68 154.535 1240.41 152.546 1240.41 143.595V66.0157C1240.41 57.0643 1236.68 55.0751 1228.97 55.0751V48.6102H1264.28V88.3942H1264.77C1268.01 69.7454 1276.21 47.1183 1297.84 47.1183ZM1429.8 2.60995V143.595C1429.8 152.546 1433.53 154.535 1441.24 154.535V161H1405.93V136.881C1401.7 150.059 1388.53 162.741 1369.63 162.741C1345.01 162.741 1324.37 150.308 1324.37 104.556C1324.37 58.8048 1345.01 46.3723 1369.63 46.3723C1388.77 46.3723 1401.95 58.0589 1405.93 70.4914V20.0154C1405.93 11.064 1402.2 9.07485 1394.49 9.07485V2.60995H1429.8ZM1375.84 150.805C1389.77 150.805 1405.93 140.859 1405.93 104.556C1405.93 68.2535 1389.77 58.3075 1375.84 58.3075C1354.71 58.3075 1349.74 78.4482 1349.74 104.556C1349.74 130.913 1354.21 150.805 1375.84 150.805ZM1496 90.632L1515.15 95.8537C1537.27 101.821 1542.5 115 1542.5 129.421C1542.5 158.016 1517.13 162.741 1498.98 162.741C1475.11 162.741 1461.69 152.795 1455.47 144.838V113.756H1459.7C1464.67 139.119 1478.34 150.805 1498.24 150.805C1512.16 150.805 1521.11 144.092 1521.11 131.659C1521.11 122.459 1515.64 116.989 1505.2 114.254L1483.07 108.535C1466.66 104.308 1457.96 94.8591 1457.96 80.686C1457.96 61.2913 1473.37 46.3723 1500.97 46.3723C1514.9 46.3723 1528.32 50.848 1537.03 58.3075L1539.51 87.6482L1535.29 88.1455C1528.32 69.2481 1518.38 58.3075 1500.97 58.3075C1488.79 58.3075 1479.34 65.0211 1479.34 75.2157C1479.34 82.6752 1482.07 86.9023 1496 90.632Z" fill="url(#paint0_linear_1_874)"/>
</g>
<path d="M123.15 112.513L123.346 111.533L122.429 111.349L122.185 112.252L123.15 112.513ZM129.366 113.757L130.354 113.915L130.506 112.965L129.562 112.776L129.366 113.757ZM128.123 67.5076L128.026 68.5029L129.123 68.6097V67.5076H128.123ZM100.026 64.7724L99.0615 64.5065L98.7454 65.6526L99.9286 65.7677L100.026 64.7724ZM77.3984 145.092C106.251 145.092 120.034 127.826 124.115 112.775L122.185 112.252C118.31 126.541 105.238 143.092 77.3984 143.092V145.092ZM122.954 113.494L129.17 114.737L129.562 112.776L123.346 111.533L122.954 113.494ZM128.379 113.598C126.775 123.591 123.337 135.613 114.761 145.132C106.218 154.615 92.4583 161.741 69.9389 161.741V163.741C92.9224 163.741 107.261 156.445 116.247 146.471C125.2 136.533 128.725 124.063 130.354 113.915L128.379 113.598ZM69.9389 161.741C47.6888 161.741 30.5225 153.946 18.8979 139.85C7.25061 125.727 1.06821 105.157 1.06821 79.4428H-0.931793C-0.931793 105.448 5.31831 126.527 17.3549 141.123C29.4142 155.746 47.1833 163.741 69.9389 163.741V161.741ZM1.06821 79.4428C1.06821 55.6239 7.60845 36.048 19.4102 22.4423C31.1977 8.85309 48.3157 1.12345 69.6902 1.12345V-0.876551C47.7996 -0.876551 30.1066 7.05875 17.8994 21.1318C5.70641 35.1885 -0.931793 55.2722 -0.931793 79.4428H1.06821ZM69.6902 1.12345C93.5738 1.12345 107.843 8.86448 116.189 20.2643C124.58 31.7259 127.123 47.0697 127.123 62.5346H129.123C129.123 46.9182 126.569 31.0564 117.803 19.0828C108.992 7.04737 94.0447 -0.876551 69.6902 -0.876551V1.12345ZM127.123 62.5346V67.5076H129.123V62.5346H127.123ZM128.22 66.5123L100.122 63.7772L99.9286 65.7677L128.026 68.5029L128.22 66.5123ZM100.99 65.0384C102.999 57.7524 104.009 50.9491 104.009 43.8858H102.009C102.009 50.747 101.03 57.3708 99.0615 64.5065L100.99 65.0384ZM104.009 43.8858C104.009 32.8651 100.709 25.0388 95.0339 19.9836C89.38 14.9471 81.5227 12.7992 72.674 12.7992V14.7992C81.2308 14.7992 88.5412 16.8784 93.7036 21.477C98.845 26.057 102.009 33.274 102.009 43.8858H104.009ZM72.674 12.7992C60.6507 12.7992 48.4149 16.6018 39.1992 26.9336C29.9967 37.2506 23.9332 53.9358 23.9332 79.4428H25.9332C25.9332 54.2252 31.9292 38.0886 40.6917 28.2649C49.441 18.4561 61.0756 14.7992 72.674 14.7992V12.7992ZM23.9332 79.4428C23.9332 99.6156 29.0072 116.024 38.2683 127.411C47.5488 138.82 60.9595 145.092 77.3984 145.092V143.092C61.5127 143.092 48.6909 137.055 39.8199 126.149C30.9296 115.218 25.9332 99.3027 25.9332 79.4428H23.9332ZM198.695 47.3723C215.492 47.3723 228.632 53.0046 237.582 62.8948C246.544 72.798 251.403 87.0814 251.403 104.556H253.403C253.403 86.7232 248.441 71.9145 239.065 61.5528C229.677 51.178 215.962 45.3723 198.695 45.3723V47.3723ZM251.403 104.556C251.403 122.031 246.544 136.315 237.582 146.218C228.632 156.108 215.492 161.741 198.695 161.741V163.741C215.962 163.741 229.677 157.935 239.065 147.56C248.441 137.198 253.403 122.39 253.403 104.556H251.403ZM198.695 161.741C181.897 161.741 168.757 156.108 159.808 146.218C150.846 136.315 145.986 122.031 145.986 104.556H143.986C143.986 122.39 148.948 137.198 158.325 147.56C167.713 157.935 181.427 163.741 198.695 163.741V161.741ZM145.986 104.556C145.986 87.0814 150.846 72.798 159.808 62.8948C168.757 53.0046 181.897 47.3723 198.695 47.3723V45.3723C181.427 45.3723 167.713 51.178 158.325 61.5528C148.948 71.9145 143.986 86.7232 143.986 104.556H145.986ZM198.695 151.805C209.418 151.805 216.822 146.598 221.485 138.043C226.109 129.561 228.041 117.803 228.041 104.556H226.041C226.041 117.667 224.119 129.033 219.729 137.086C215.379 145.067 208.61 149.805 198.695 149.805V151.805ZM228.041 104.556C228.041 91.31 226.109 79.5516 221.485 71.0695C216.822 62.5152 209.418 57.3075 198.695 57.3075V59.3075C208.61 59.3075 215.379 64.0459 219.729 72.0268C224.119 80.0799 226.041 91.446 226.041 104.556H228.041ZM198.695 57.3075C187.972 57.3075 180.568 62.5152 175.905 71.0695C171.281 79.5516 169.349 91.31 169.349 104.556H171.349C171.349 91.446 173.271 80.0799 177.661 72.0268C182.011 64.0459 188.78 59.3075 198.695 59.3075V57.3075ZM169.349 104.556C169.349 117.803 171.281 129.561 175.905 138.043C180.568 146.598 187.972 151.805 198.695 151.805V149.805C188.78 149.805 182.011 145.067 177.661 137.086C173.271 129.033 171.349 117.667 171.349 104.556H169.349ZM449.948 154.535H450.948V153.535H449.948V154.535ZM449.948 161V162H450.948V161H449.948ZM403.202 161H402.202V162H403.202V161ZM403.202 154.535V153.535H402.202V154.535H403.202ZM380.326 154.535H381.326V153.535H380.326V154.535ZM380.326 161V162H381.326V161H380.326ZM333.58 161H332.58V162H333.58V161ZM333.58 154.535V153.535H332.58V154.535H333.58ZM312.196 154.535H313.196V153.535H312.196V154.535ZM312.196 161V162H313.196V161H312.196ZM265.45 161H264.45V162H265.45V161ZM265.45 154.535V153.535H264.45V154.535H265.45ZM265.45 55.0751H264.45V56.0751H265.45V55.0751ZM265.45 48.6102V47.6102H264.45V48.6102H265.45ZM300.758 48.6102H301.758V47.6102H300.758V48.6102ZM300.758 77.7022H299.758V78.7022H300.758V77.7022ZM301.255 77.7022V78.7022H302.134L302.247 77.8308L301.255 77.7022ZM368.391 78.6968L367.396 78.8021L367.491 79.6968H368.391V78.6968ZM369.385 78.6968V79.6968H370.271L370.378 78.8172L369.385 78.6968ZM437.51 87.6482V143.594H439.51V87.6482H437.51ZM437.51 143.594C437.51 148.168 438.456 151.279 440.69 153.183C442.881 155.051 446.071 155.535 449.948 155.535V153.535C446.117 153.535 443.587 153.025 441.987 151.661C440.429 150.332 439.51 147.972 439.51 143.594H437.51ZM448.948 154.535V161H450.948V154.535H448.948ZM449.948 160H403.202V162H449.948V160ZM404.202 161V154.535H402.202V161H404.202ZM403.202 155.535C407.078 155.535 410.268 155.051 412.46 153.183C414.694 151.279 415.64 148.168 415.64 143.594H413.64C413.64 147.972 412.721 150.332 411.163 151.661C409.562 153.025 407.033 153.535 403.202 153.535V155.535ZM415.64 143.594V92.1239H413.64V143.594H415.64ZM415.64 92.1239C415.64 81.3108 414.78 73.0729 411.99 67.5245C410.578 64.7172 408.661 62.5743 406.107 61.1451C403.562 59.7219 400.46 59.0481 396.737 59.0481V61.0481C400.225 61.0481 402.966 61.6797 405.13 62.8906C407.284 64.0956 408.942 65.9155 410.203 68.4231C412.759 73.5046 413.64 81.3045 413.64 92.1239H415.64ZM396.737 59.0481C389.299 59.0481 382.013 62.34 376.642 71.217C371.313 80.0235 367.888 94.2874 367.888 116.243H369.888C369.888 94.4362 373.301 80.6026 378.353 72.2523C383.363 63.9724 390.001 61.0481 396.737 61.0481V59.0481ZM367.888 116.243V143.594H369.888V116.243H367.888ZM367.888 143.594C367.888 148.168 368.834 151.279 371.068 153.183C373.259 155.051 376.449 155.535 380.326 155.535V153.535C376.495 153.535 373.965 153.025 372.365 151.661C370.807 150.332 369.888 147.972 369.888 143.594H367.888ZM379.326 154.535V161H381.326V154.535H379.326ZM380.326 160H333.58V162H380.326V160ZM334.58 161V154.535H332.58V161H334.58ZM333.58 155.535C337.457 155.535 340.646 155.051 342.838 153.183C345.072 151.279 346.018 148.168 346.018 143.594H344.018C344.018 147.972 343.099 150.332 341.541 151.661C339.94 153.025 337.411 153.535 333.58 153.535V155.535ZM346.018 143.594V92.1239H344.018V143.594H346.018ZM346.018 92.1239C346.018 81.684 345.22 73.4517 342.466 67.8146C341.074 64.9646 339.169 62.7496 336.604 61.2582C334.046 59.7715 330.908 59.0481 327.115 59.0481V61.0481C330.657 61.0481 333.424 61.7234 335.599 62.9873C337.765 64.2466 339.419 66.1344 340.669 68.6925C343.199 73.8717 344.018 81.6773 344.018 92.1239H346.018ZM327.115 59.0481C320.722 59.0481 313.79 61.428 308.518 69.901C303.304 78.282 299.758 92.5573 299.758 116.243H301.758C301.758 92.6852 305.298 78.863 310.217 70.9575C315.078 63.1439 321.323 61.0481 327.115 61.0481V59.0481ZM299.758 116.243V143.594H301.758V116.243H299.758ZM299.758 143.594C299.758 148.168 300.704 151.279 302.938 153.183C305.129 155.051 308.319 155.535 312.196 155.535V153.535C308.364 153.535 305.835 153.025 304.235 151.661C302.677 150.332 301.758 147.972 301.758 143.594H299.758ZM311.196 154.535V161H313.196V154.535H311.196ZM312.196 160H265.45V162H312.196V160ZM266.45 161V154.535H264.45V161H266.45ZM265.45 155.535C269.326 155.535 272.516 155.051 274.708 153.183C276.941 151.279 277.888 148.168 277.888 143.594H275.888C275.888 147.972 274.969 150.332 273.41 151.661C271.81 153.025 269.281 153.535 265.45 153.535V155.535ZM277.888 143.594V66.0157H275.888V143.594H277.888ZM277.888 66.0157C277.888 61.4421 276.941 58.3316 274.708 56.4276C272.516 54.5593 269.326 54.0751 265.45 54.0751V56.0751C269.281 56.0751 271.81 56.5855 273.41 57.9496C274.969 59.2781 275.888 61.6379 275.888 66.0157H277.888ZM266.45 55.0751V48.6102H264.45V55.0751H266.45ZM265.45 49.6102H300.758V47.6102H265.45V49.6102ZM299.758 48.6102V77.7022H301.758V48.6102H299.758ZM300.758 78.7022H301.255V76.7022H300.758V78.7022ZM302.247 77.8308C303.1 71.2525 305.655 63.6248 310.866 57.6601C316.05 51.7276 323.917 47.3723 335.569 47.3723V45.3723C323.351 45.3723 314.931 49.9685 309.36 56.3442C303.818 62.6876 301.151 70.7249 300.264 77.5737L302.247 77.8308ZM335.569 47.3723C345.195 47.3723 352.562 50.1084 357.802 55.318C363.056 60.542 366.292 68.3747 367.396 78.8021L369.385 78.5916C368.251 67.8837 364.899 59.5542 359.212 53.8998C353.511 48.2309 345.586 45.3723 335.569 45.3723V47.3723ZM368.391 79.6968H369.385V77.6968H368.391V79.6968ZM370.378 78.8172C371.353 70.7744 374.455 62.9071 379.936 57.0647C385.398 51.2433 393.274 47.3723 403.948 47.3723V45.3723C392.74 45.3723 384.33 49.4582 378.478 55.6963C372.645 61.9134 369.407 70.2084 368.393 78.5765L370.378 78.8172ZM403.948 47.3723C415.541 47.3723 423.86 50.9619 429.311 57.6642C434.794 64.4053 437.51 74.4576 437.51 87.6482H439.51C439.51 74.2333 436.756 63.6476 430.863 56.4022C424.938 49.118 415.977 45.3723 403.948 45.3723V47.3723ZM490.499 136.881L491.451 136.576L489.499 136.881H490.499ZM490.499 209.238V210.238H491.499V209.238H490.499ZM455.191 209.238H454.191V210.238H455.191V209.238ZM455.191 202.773V201.773H454.191V202.773H455.191ZM455.191 55.0751H454.191V56.0751H455.191V55.0751ZM455.191 48.6102V47.6102H454.191V48.6102H455.191ZM490.499 48.6102H491.499V47.6102H490.499V48.6102ZM490.499 70.4914H489.499L491.452 70.7962L490.499 70.4914ZM526.802 47.3723C538.951 47.3723 549.95 50.4379 557.929 58.9898C565.924 67.5572 571.056 81.8092 571.056 104.556H573.056C573.056 81.5521 567.87 66.7121 559.392 57.6253C550.898 48.523 539.27 45.3723 526.802 45.3723V47.3723ZM571.056 104.556C571.056 127.304 565.924 141.556 557.929 150.123C549.95 158.675 538.951 161.741 526.802 161.741V163.741C539.27 163.741 550.898 160.59 559.392 151.488C567.87 142.401 573.056 127.561 573.056 104.556H571.056ZM526.802 161.741C508.39 161.741 495.562 149.391 491.451 136.576L489.547 137.186C493.891 150.728 507.419 163.741 526.802 163.741V161.741ZM489.499 136.881V209.238H491.499V136.881H489.499ZM490.499 208.238H455.191V210.238H490.499V208.238ZM456.191 209.238V202.773H454.191V209.238H456.191ZM455.191 203.773C459.068 203.773 462.257 203.289 464.449 201.421C466.683 199.517 467.629 196.406 467.629 191.833H465.629C465.629 196.21 464.71 198.57 463.152 199.899C461.552 201.263 459.022 201.773 455.191 201.773V203.773ZM467.629 191.833V66.0157H465.629V191.833H467.629ZM467.629 66.0157C467.629 61.4421 466.683 58.3316 464.449 56.4276C462.257 54.5593 459.068 54.0751 455.191 54.0751V56.0751C459.022 56.0751 461.552 56.5855 463.152 57.9496C464.71 59.2781 465.629 61.6379 465.629 66.0157H467.629ZM456.191 55.0751V48.6102H454.191V55.0751H456.191ZM455.191 49.6102H490.499V47.6102H455.191V49.6102ZM489.499 48.6102V70.4914H491.499V48.6102H489.499ZM491.452 70.7962C495.295 58.7843 508.084 47.3723 526.802 47.3723V45.3723C507.228 45.3723 493.66 57.3334 489.547 70.1866L491.452 70.7962ZM520.586 151.805C526.152 151.805 530.688 150.524 534.341 148.121C537.992 145.72 540.689 142.247 542.66 137.984C546.582 129.503 547.694 117.748 547.694 104.556H545.694C545.694 117.722 544.569 129.091 540.845 137.145C538.993 141.15 536.514 144.298 533.242 146.45C529.972 148.6 525.836 149.805 520.586 149.805V151.805ZM547.694 104.556C547.694 91.4784 546.455 79.7272 542.471 71.2174C540.47 66.9434 537.761 63.4506 534.137 61.0309C530.509 58.6081 526.035 57.3075 520.586 57.3075V59.3075C525.705 59.3075 529.778 60.5245 533.026 62.6941C536.28 64.8666 538.776 68.0408 540.66 72.0654C544.446 80.153 545.694 91.5263 545.694 104.556H547.694ZM520.586 57.3075C513.376 57.3075 505.55 59.891 499.549 67.1829C493.567 74.4507 489.499 86.2732 489.499 104.556H491.499C491.499 86.5368 495.512 75.2348 501.093 68.4539C506.654 61.6971 513.871 59.3075 520.586 59.3075V57.3075ZM489.499 104.556C489.499 122.84 493.567 134.662 499.549 141.93C505.55 149.222 513.376 151.805 520.586 151.805V149.805C513.871 149.805 506.654 147.416 501.093 140.659C495.512 133.878 491.499 122.576 491.499 104.556H489.499ZM687.875 154.535H688.875V153.535H687.875V154.535ZM687.875 161V162H688.875V161H687.875ZM655.55 161H654.55V162H655.55V161ZM655.55 129.421H656.55V128.421H655.55V129.421ZM654.804 129.421V128.421H653.985L653.824 129.225L654.804 129.421ZM590.653 103.811L590.544 102.816L589.961 102.88L589.732 103.421L590.653 103.811ZM654.307 96.8483L654.416 97.8424L655.307 97.7449V96.8483H654.307ZM613.777 84.9131H614.777V84.7792L614.742 84.65L613.777 84.9131ZM613.777 85.659L613.869 86.6548L614.777 86.5713V85.659H613.777ZM592.145 87.6482L591.196 87.9645L591.447 88.7166L592.236 88.644L592.145 87.6482ZM653.81 104.059L654.807 104.131L654.902 102.818L653.612 103.079L653.81 104.059ZM612.037 112.513L611.838 111.533L611.309 111.64L611.108 112.142L612.037 112.513ZM675.437 99.8321V143.594H677.437V99.8321H675.437ZM675.437 143.594C675.437 148.168 676.383 151.279 678.617 153.183C680.808 155.051 683.998 155.535 687.875 155.535V153.535C684.044 153.535 681.514 153.025 679.914 151.661C678.356 150.332 677.437 147.972 677.437 143.594H675.437ZM686.875 154.535V161H688.875V154.535H686.875ZM687.875 160H655.55V162H687.875V160ZM656.55 161V129.421H654.55V161H656.55ZM655.55 128.421H654.804V130.421H655.55V128.421ZM653.824 129.225C652.224 137.223 649.288 145.365 644.037 151.491C638.819 157.579 631.264 161.741 620.242 161.741V163.741C631.847 163.741 639.957 159.324 645.556 152.793C651.121 146.3 654.152 137.782 655.785 129.618L653.824 129.225ZM620.242 161.741C609.74 161.741 601.72 158.754 596.308 152.718C590.878 146.661 587.923 137.369 587.923 124.448H585.923C585.923 137.636 588.935 147.49 594.819 154.053C600.72 160.635 609.36 163.741 620.242 163.741V161.741ZM587.923 124.448C587.923 118.559 588.909 110.499 591.574 104.2L589.732 103.421C586.926 110.052 585.923 118.403 585.923 124.448H587.923ZM590.761 104.805L654.416 97.8424L654.198 95.8542L590.544 102.816L590.761 104.805ZM655.307 96.8483V92.6213H653.307V96.8483H655.307ZM655.307 92.6213C655.307 81.606 653.56 72.8044 649.746 66.7273C645.884 60.5743 639.959 57.3075 631.929 57.3075V59.3075C639.315 59.3075 644.579 62.257 648.052 67.7906C651.573 73.4 653.307 81.7553 653.307 92.6213H655.307ZM631.929 57.3075C625.134 57.3075 620.003 59.364 616.572 62.8945C613.148 66.4181 611.534 71.2915 611.534 76.7076H613.534C613.534 71.6805 615.028 67.3538 618.007 64.2882C620.979 61.2295 625.545 59.3075 631.929 59.3075V57.3075ZM611.534 76.7076C611.534 79.8143 612.054 82.3958 612.812 85.1762L614.742 84.65C614.008 81.9601 613.534 79.5686 613.534 76.7076H611.534ZM612.777 84.9131V85.659H614.777V84.9131H612.777ZM613.686 84.6633L592.053 86.6525L592.236 88.644L613.869 86.6548L613.686 84.6633ZM593.093 87.332C592.582 85.7982 591.155 81.9837 591.155 77.9509H589.155C589.155 82.3722 590.713 86.5145 591.196 87.9645L593.093 87.332ZM591.155 77.9509C591.155 69.3388 595.152 61.7292 602.384 56.2449C609.631 50.749 620.158 47.3723 633.172 47.3723V45.3723C619.829 45.3723 608.847 48.8335 601.176 54.6513C593.489 60.4806 589.155 68.6602 589.155 77.9509H591.155ZM633.172 47.3723C643.433 47.3723 651.155 49.2618 656.977 52.3895C662.789 55.5118 666.765 59.8987 669.495 64.9959C674.986 75.2502 675.437 88.3687 675.437 99.8321H677.437C677.437 88.4197 677.018 74.8083 671.258 64.0517C668.362 58.6434 664.117 53.9546 657.924 50.6276C651.74 47.3059 643.673 45.3723 633.172 45.3723V47.3723ZM625.961 150.065C633.066 150.065 639.755 146.366 644.909 138.779C650.046 131.217 653.681 119.774 654.807 104.131L652.812 103.987C651.701 119.426 648.125 130.485 643.254 137.656C638.4 144.802 632.283 148.065 625.961 148.065V150.065ZM653.612 103.079L611.838 111.533L612.235 113.493L654.008 105.039L653.612 103.079ZM611.108 112.142C609.55 116.038 608.799 121.651 608.799 127.184H610.799C610.799 121.775 611.54 116.448 612.965 112.885L611.108 112.142ZM608.799 127.184C608.799 133.761 610.124 139.459 612.956 143.543C615.822 147.676 620.175 150.065 625.961 150.065V148.065C620.807 148.065 617.078 145.978 614.599 142.403C612.085 138.778 610.799 133.536 610.799 127.184H608.799ZM792.31 57.0643L793.251 57.4019L793.419 56.9335L793.147 56.5171L792.31 57.0643ZM784.104 79.9401L783.841 80.9049L784.733 81.1482L785.046 80.2777L784.104 79.9401ZM781.369 79.1941L780.37 79.1585L780.342 79.9504L781.106 80.1589L781.369 79.1941ZM748.547 154.535H749.547V153.535H748.547V154.535ZM748.547 161V162H749.547V161H748.547ZM701.801 161H700.801V162H701.801V161ZM701.801 154.535V153.535H700.801V154.535H701.801ZM701.801 55.0751H700.801V56.0751H701.801V55.0751ZM701.801 48.6102V47.6102H700.801V48.6102H701.801ZM737.109 48.6102H738.109V47.6102H737.109V48.6102ZM737.109 88.3942H736.109V89.3942H737.109V88.3942ZM737.607 88.3942V89.3942H738.448L738.592 88.565L737.607 88.3942ZM770.677 48.1183C779.414 48.1183 787.489 51.5188 791.473 57.6115L793.147 56.5171C788.676 49.68 779.843 46.1183 770.677 46.1183V48.1183ZM791.369 56.7267L783.163 79.6025L785.046 80.2777L793.251 57.4019L791.369 56.7267ZM784.367 78.9753L781.632 78.2294L781.106 80.1589L783.841 80.9049L784.367 78.9753ZM782.369 79.2298C782.639 71.6566 776.419 64.2697 765.953 64.2697V66.2697C775.379 66.2697 780.597 72.8073 780.37 79.1585L782.369 79.2298ZM765.953 64.2697C758.115 64.2697 750.579 67.8992 745.065 77.7096C739.594 87.4421 736.109 103.249 736.109 127.681H738.109C738.109 103.377 741.587 87.9788 746.808 78.6895C751.986 69.4782 758.872 66.2697 765.953 66.2697V64.2697ZM736.109 127.681V143.594H738.109V127.681H736.109ZM736.109 143.594C736.109 148.168 737.056 151.279 739.289 153.183C741.481 155.051 744.671 155.535 748.547 155.535V153.535C744.716 153.535 742.187 153.025 740.587 151.661C739.028 150.332 738.109 147.972 738.109 143.594H736.109ZM747.547 154.535V161H749.547V154.535H747.547ZM748.547 160H701.801V162H748.547V160ZM702.801 161V154.535H700.801V161H702.801ZM701.801 155.535C705.678 155.535 708.868 155.051 711.059 153.183C713.293 151.279 714.239 148.168 714.239 143.594H712.239C712.239 147.972 711.32 150.332 709.762 151.661C708.162 153.025 705.633 153.535 701.801 153.535V155.535ZM714.239 143.594V66.0157H712.239V143.594H714.239ZM714.239 66.0157C714.239 61.4421 713.293 58.3316 711.059 56.4276C708.868 54.5593 705.678 54.0751 701.801 54.0751V56.0751C705.633 56.0751 708.162 56.5855 709.762 57.9496C711.32 59.2781 712.239 61.6379 712.239 66.0157H714.239ZM702.801 55.0751V48.6102H700.801V55.0751H702.801ZM701.801 49.6102H737.109V47.6102H701.801V49.6102ZM736.109 48.6102V88.3942H738.109V48.6102H736.109ZM737.109 89.3942H737.607V87.3942H737.109V89.3942ZM738.592 88.565C740.2 79.2902 743.03 69.1266 748.082 61.3055C753.109 53.5225 760.286 48.1183 770.677 48.1183V46.1183C759.436 46.1183 751.694 52.0277 746.402 60.2204C741.135 68.3751 738.246 78.8494 736.622 88.2234L738.592 88.565ZM894.585 127.432L894.956 126.504L894.092 126.158L893.685 126.995L894.585 127.432ZM899.558 129.421L900.506 129.738L900.804 128.843L899.929 128.493L899.558 129.421ZM897.817 103.065L897.847 104.064L898.703 104.038L898.809 103.189L897.817 103.065ZM823.968 105.302L823.938 104.303L822.942 104.333L822.968 105.328L823.968 105.302ZM824.217 97.097L823.218 97.0439L823.158 98.1835L824.295 98.0939L824.217 97.097ZM874.693 93.1186L874.771 94.1155L875.502 94.0578L875.667 93.3434L874.693 93.1186ZM894.213 128.361L899.186 130.35L899.929 128.493L894.956 126.504L894.213 128.361ZM898.609 129.105C896.646 134.995 892.98 143.164 886.294 149.85C879.633 156.51 869.937 161.741 855.795 161.741V163.741C870.496 163.741 880.693 158.279 887.708 151.264C894.698 144.274 898.491 135.783 900.506 129.738L898.609 129.105ZM855.795 161.741C839.583 161.741 826.191 156.893 816.851 147.34C807.508 137.785 802.092 123.394 802.092 104.059H800.092C800.092 123.762 805.617 138.712 815.421 148.738C825.226 158.766 839.185 163.741 855.795 163.741V161.741ZM802.092 104.059C802.092 85.2064 807.081 71.0582 815.842 61.6302C824.595 52.2116 837.233 47.3723 852.811 47.3723V45.3723C836.811 45.3723 823.59 50.3547 814.377 60.2687C805.173 70.1733 800.092 84.8684 800.092 104.059H802.092ZM852.811 47.3723C867.417 47.3723 878.51 51.542 885.952 58.9836C893.394 66.4258 897.314 77.2704 897.314 90.8807H899.314C899.314 76.8909 895.278 65.4813 887.366 57.5694C879.453 49.6568 867.795 45.3723 852.811 45.3723V47.3723ZM897.314 90.8807C897.314 96.1094 897.313 99.033 896.825 102.941L898.809 103.189C899.315 99.1393 899.314 96.0953 899.314 90.8807H897.314ZM897.787 102.065L823.938 104.303L823.998 106.302L897.847 104.064L897.787 102.065ZM822.968 105.328C823.345 119.77 827.053 130.906 833.692 138.443C840.351 146.003 849.847 149.816 861.514 149.816V147.816C850.306 147.816 841.402 144.17 835.193 137.121C828.965 130.051 825.337 119.43 824.968 105.276L822.968 105.328ZM861.514 149.816C881.962 149.816 891.181 136.728 895.484 127.869L893.685 126.995C889.534 135.542 880.851 147.816 861.514 147.816V149.816ZM853.557 57.3075C845.357 57.3075 838.092 60.0744 832.711 66.5251C827.36 72.9401 823.97 82.8811 823.218 97.0439L825.215 97.15C825.955 83.2154 829.279 73.7617 834.247 67.8063C839.185 61.8866 845.844 59.3075 853.557 59.3075V57.3075ZM824.295 98.0939L874.771 94.1155L874.614 92.1216L824.138 96.1L824.295 98.0939ZM875.667 93.3434C876.428 90.0462 876.936 86.4894 876.936 82.1779H874.936C874.936 86.3206 874.449 89.726 873.718 92.8937L875.667 93.3434ZM876.936 82.1779C876.936 75.6282 874.817 69.4176 870.815 64.8299C866.8 60.2269 860.929 57.3075 853.557 57.3075V59.3075C860.359 59.3075 865.677 61.9828 869.308 66.1447C872.952 70.3219 874.936 76.0466 874.936 82.1779H876.936ZM1091.04 112.513L1091.24 111.533L1090.32 111.349L1090.07 112.252L1091.04 112.513ZM1097.26 113.757L1098.24 113.915L1098.4 112.965L1097.45 112.776L1097.26 113.757ZM1096.01 67.5076L1095.92 68.5029L1097.01 68.6097V67.5076H1096.01ZM1067.91 64.7724L1066.95 64.5065L1066.63 65.6526L1067.82 65.7677L1067.91 64.7724ZM1045.29 145.092C1074.14 145.092 1087.92 127.826 1092 112.775L1090.07 112.252C1086.2 126.541 1073.13 143.092 1045.29 143.092V145.092ZM1090.84 113.494L1097.06 114.737L1097.45 112.776L1091.24 111.533L1090.84 113.494ZM1096.27 113.598C1094.66 123.591 1091.23 135.613 1082.65 145.132C1074.11 154.615 1060.35 161.741 1037.83 161.741V163.741C1060.81 163.741 1075.15 156.445 1084.14 146.471C1093.09 136.533 1096.61 124.063 1098.24 113.915L1096.27 113.598ZM1037.83 161.741C1015.58 161.741 998.412 153.946 986.787 139.85C975.14 125.727 968.958 105.157 968.958 79.4428H966.958C966.958 105.448 973.208 126.527 985.244 141.123C997.304 155.746 1015.07 163.741 1037.83 163.741V161.741ZM968.958 79.4428C968.958 55.6239 975.498 36.048 987.3 22.4423C999.087 8.85309 1016.21 1.12345 1037.58 1.12345V-0.876551C1015.69 -0.876551 997.996 7.05875 985.789 21.1318C973.596 35.1885 966.958 55.2722 966.958 79.4428H968.958ZM1037.58 1.12345C1061.46 1.12345 1075.73 8.86448 1084.08 20.2643C1092.47 31.7259 1095.01 47.0697 1095.01 62.5346H1097.01C1097.01 46.9182 1094.46 31.0564 1085.69 19.0828C1076.88 7.04737 1061.93 -0.876551 1037.58 -0.876551V1.12345ZM1095.01 62.5346V67.5076H1097.01V62.5346H1095.01ZM1096.11 66.5123L1068.01 63.7772L1067.82 65.7677L1095.92 68.5029L1096.11 66.5123ZM1068.88 65.0384C1070.89 57.7524 1071.9 50.9491 1071.9 43.8858H1069.9C1069.9 50.747 1068.92 57.3708 1066.95 64.5065L1068.88 65.0384ZM1071.9 43.8858C1071.9 32.8651 1068.6 25.0388 1062.92 19.9836C1057.27 14.9471 1049.41 12.7992 1040.56 12.7992V14.7992C1049.12 14.7992 1056.43 16.8784 1061.59 21.477C1066.73 26.057 1069.9 33.274 1069.9 43.8858H1071.9ZM1040.56 12.7992C1028.54 12.7992 1016.3 16.6018 1007.09 26.9336C997.886 37.2506 991.823 53.9358 991.823 79.4428H993.823C993.823 54.2252 999.819 38.0886 1008.58 28.2649C1017.33 18.4561 1028.97 14.7992 1040.56 14.7992V12.7992ZM991.823 79.4428C991.823 99.6156 996.897 116.024 1006.16 127.411C1015.44 138.82 1028.85 145.092 1045.29 145.092V143.092C1029.4 143.092 1016.58 137.055 1007.71 126.149C998.819 115.218 993.823 99.3027 993.823 79.4428H991.823ZM1215.04 154.535H1216.04V153.535H1215.04V154.535ZM1215.04 161V162H1216.04V161H1215.04ZM1182.72 161H1181.72V162H1182.72V161ZM1182.72 129.421H1183.72V128.421H1182.72V129.421ZM1181.97 129.421V128.421H1181.15L1180.99 129.225L1181.97 129.421ZM1117.82 103.811L1117.71 102.816L1117.13 102.88L1116.9 103.421L1117.82 103.811ZM1181.47 96.8483L1181.58 97.8424L1182.47 97.7449V96.8483H1181.47ZM1140.94 84.9131H1141.94V84.7792L1141.91 84.65L1140.94 84.9131ZM1140.94 85.659L1141.04 86.6548L1141.94 86.5713V85.659H1140.94ZM1119.31 87.6482L1118.36 87.9645L1118.61 88.7166L1119.4 88.644L1119.31 87.6482ZM1180.98 104.059L1181.97 104.131L1182.07 102.818L1180.78 103.079L1180.98 104.059ZM1139.2 112.513L1139.01 111.533L1138.48 111.64L1138.28 112.142L1139.2 112.513ZM1202.6 99.8321V143.594H1204.6V99.8321H1202.6ZM1202.6 143.594C1202.6 148.168 1203.55 151.279 1205.78 153.183C1207.98 155.051 1211.17 155.535 1215.04 155.535V153.535C1211.21 153.535 1208.68 153.025 1207.08 151.661C1205.52 150.332 1204.6 147.972 1204.6 143.594H1202.6ZM1214.04 154.535V161H1216.04V154.535H1214.04ZM1215.04 160H1182.72V162H1215.04V160ZM1183.72 161V129.421H1181.72V161H1183.72ZM1182.72 128.421H1181.97V130.421H1182.72V128.421ZM1180.99 129.225C1179.39 137.223 1176.46 145.365 1171.2 151.491C1165.99 157.579 1158.43 161.741 1147.41 161.741V163.741C1159.01 163.741 1167.12 159.324 1172.72 152.793C1178.29 146.3 1181.32 137.782 1182.95 129.618L1180.99 129.225ZM1147.41 161.741C1136.91 161.741 1128.89 158.754 1123.48 152.718C1118.05 146.661 1115.09 137.369 1115.09 124.448H1113.09C1113.09 137.636 1116.1 147.49 1121.99 154.053C1127.89 160.635 1136.53 163.741 1147.41 163.741V161.741ZM1115.09 124.448C1115.09 118.559 1116.08 110.499 1118.74 104.2L1116.9 103.421C1114.09 110.052 1113.09 118.403 1113.09 124.448H1115.09ZM1117.93 104.805L1181.58 97.8424L1181.37 95.8542L1117.71 102.816L1117.93 104.805ZM1182.47 96.8483V92.6213H1180.47V96.8483H1182.47ZM1182.47 92.6213C1182.47 81.606 1180.73 72.8044 1176.91 66.7273C1173.05 60.5743 1167.13 57.3075 1159.1 57.3075V59.3075C1166.48 59.3075 1171.75 62.257 1175.22 67.7906C1178.74 73.4 1180.47 81.7553 1180.47 92.6213H1182.47ZM1159.1 57.3075C1152.3 57.3075 1147.17 59.364 1143.74 62.8945C1140.32 66.4181 1138.7 71.2915 1138.7 76.7076H1140.7C1140.7 71.6805 1142.19 67.3538 1145.17 64.2882C1148.15 61.2295 1152.71 59.3075 1159.1 59.3075V57.3075ZM1138.7 76.7076C1138.7 79.8143 1139.22 82.3958 1139.98 85.1762L1141.91 84.65C1141.18 81.9601 1140.7 79.5686 1140.7 76.7076H1138.7ZM1139.94 84.9131V85.659H1141.94V84.9131H1139.94ZM1140.85 84.6633L1119.22 86.6525L1119.4 88.644L1141.04 86.6548L1140.85 84.6633ZM1120.26 87.332C1119.75 85.7982 1118.32 81.9837 1118.32 77.9509H1116.32C1116.32 82.3722 1117.88 86.5145 1118.36 87.9645L1120.26 87.332ZM1118.32 77.9509C1118.32 69.3388 1122.32 61.7292 1129.55 56.2449C1136.8 50.749 1147.33 47.3723 1160.34 47.3723V45.3723C1147 45.3723 1136.01 48.8335 1128.34 54.6513C1120.66 60.4806 1116.32 68.6602 1116.32 77.9509H1118.32ZM1160.34 47.3723C1170.6 47.3723 1178.32 49.2618 1184.14 52.3895C1189.96 55.5118 1193.93 59.8987 1196.66 64.9959C1202.15 75.2502 1202.6 88.3687 1202.6 99.8321H1204.6C1204.6 88.4197 1204.18 74.8083 1198.42 64.0517C1195.53 58.6434 1191.28 53.9546 1185.09 50.6276C1178.91 47.3059 1170.84 45.3723 1160.34 45.3723V47.3723ZM1153.13 150.065C1160.23 150.065 1166.92 146.366 1172.08 138.779C1177.21 131.217 1180.85 119.774 1181.97 104.131L1179.98 103.987C1178.87 119.426 1175.29 130.485 1170.42 137.656C1165.57 144.802 1159.45 148.065 1153.13 148.065V150.065ZM1180.78 103.079L1139.01 111.533L1139.4 113.493L1181.18 105.039L1180.78 103.079ZM1138.28 112.142C1136.72 116.038 1135.97 121.651 1135.97 127.184H1137.97C1137.97 121.775 1138.71 116.448 1140.13 112.885L1138.28 112.142ZM1135.97 127.184C1135.97 133.761 1137.29 139.459 1140.12 143.543C1142.99 147.676 1147.34 150.065 1153.13 150.065V148.065C1147.97 148.065 1144.25 145.978 1141.77 142.403C1139.25 138.778 1137.97 133.536 1137.97 127.184H1135.97ZM1319.48 57.0643L1320.42 57.4019L1320.59 56.9335L1320.31 56.5171L1319.48 57.0643ZM1311.27 79.9401L1311.01 80.9049L1311.9 81.1482L1312.21 80.2777L1311.27 79.9401ZM1308.54 79.1941L1307.54 79.1585L1307.51 79.9504L1308.27 80.1589L1308.54 79.1941ZM1275.71 154.535H1276.71V153.535H1275.71V154.535ZM1275.71 161V162H1276.71V161H1275.71ZM1228.97 161H1227.97V162H1228.97V161ZM1228.97 154.535V153.535H1227.97V154.535H1228.97ZM1228.97 55.0751H1227.97V56.0751H1228.97V55.0751ZM1228.97 48.6102V47.6102H1227.97V48.6102H1228.97ZM1264.28 48.6102H1265.28V47.6102H1264.28V48.6102ZM1264.28 88.3942H1263.28V89.3942H1264.28V88.3942ZM1264.77 88.3942V89.3942H1265.62L1265.76 88.565L1264.77 88.3942ZM1297.84 48.1183C1306.58 48.1183 1314.66 51.5188 1318.64 57.6115L1320.31 56.5171C1315.84 49.68 1307.01 46.1183 1297.84 46.1183V48.1183ZM1318.54 56.7267L1310.33 79.6025L1312.21 80.2777L1320.42 57.4019L1318.54 56.7267ZM1311.53 78.9753L1308.8 78.2294L1308.27 80.1589L1311.01 80.9049L1311.53 78.9753ZM1309.54 79.2298C1309.81 71.6566 1303.59 64.2697 1293.12 64.2697V66.2697C1302.55 66.2697 1307.76 72.8073 1307.54 79.1585L1309.54 79.2298ZM1293.12 64.2697C1285.28 64.2697 1277.75 67.8992 1272.23 77.7096C1266.76 87.4421 1263.28 103.249 1263.28 127.681H1265.28C1265.28 103.377 1268.75 87.9788 1273.98 78.6895C1279.15 69.4782 1286.04 66.2697 1293.12 66.2697V64.2697ZM1263.28 127.681V143.594H1265.28V127.681H1263.28ZM1263.28 143.594C1263.28 148.168 1264.22 151.279 1266.46 153.183C1268.65 155.051 1271.84 155.535 1275.71 155.535V153.535C1271.88 153.535 1269.35 153.025 1267.75 151.661C1266.2 150.332 1265.28 147.972 1265.28 143.594H1263.28ZM1274.71 154.535V161H1276.71V154.535H1274.71ZM1275.71 160H1228.97V162H1275.71V160ZM1229.97 161V154.535H1227.97V161H1229.97ZM1228.97 155.535C1232.85 155.535 1236.03 155.051 1238.23 153.183C1240.46 151.279 1241.41 148.168 1241.41 143.594H1239.41C1239.41 147.972 1238.49 150.332 1236.93 151.661C1235.33 153.025 1232.8 153.535 1228.97 153.535V155.535ZM1241.41 143.594V66.0157H1239.41V143.594H1241.41ZM1241.41 66.0157C1241.41 61.4421 1240.46 58.3316 1238.23 56.4276C1236.03 54.5593 1232.85 54.0751 1228.97 54.0751V56.0751C1232.8 56.0751 1235.33 56.5855 1236.93 57.9496C1238.49 59.2781 1239.41 61.6379 1239.41 66.0157H1241.41ZM1229.97 55.0751V48.6102H1227.97V55.0751H1229.97ZM1228.97 49.6102H1264.28V47.6102H1228.97V49.6102ZM1263.28 48.6102V88.3942H1265.28V48.6102H1263.28ZM1264.28 89.3942H1264.77V87.3942H1264.28V89.3942ZM1265.76 88.565C1267.37 79.2902 1270.2 69.1266 1275.25 61.3055C1280.28 53.5225 1287.45 48.1183 1297.84 48.1183V46.1183C1286.6 46.1183 1278.86 52.0277 1273.57 60.2204C1268.3 68.3751 1265.41 78.8494 1263.79 88.2234L1265.76 88.565ZM1429.8 2.60995H1430.8V1.60995H1429.8V2.60995ZM1441.24 154.535H1442.24V153.535H1441.24V154.535ZM1441.24 161V162H1442.24V161H1441.24ZM1405.93 161H1404.93V162H1405.93V161ZM1405.93 136.881H1406.93L1404.98 136.576L1405.93 136.881ZM1405.93 70.4914L1404.98 70.7962L1406.93 70.4914H1405.93ZM1394.49 9.07485H1393.49V10.0749H1394.49V9.07485ZM1394.49 2.60995V1.60995H1393.49V2.60995H1394.49ZM1428.8 2.60995V143.594H1430.8V2.60995H1428.8ZM1428.8 143.594C1428.8 148.168 1429.75 151.279 1431.98 153.183C1434.17 155.051 1437.36 155.535 1441.24 155.535V153.535C1437.41 153.535 1434.88 153.025 1433.28 151.661C1431.72 150.332 1430.8 147.972 1430.8 143.594H1428.8ZM1440.24 154.535V161H1442.24V154.535H1440.24ZM1441.24 160H1405.93V162H1441.24V160ZM1406.93 161V136.881H1404.93V161H1406.93ZM1404.98 136.576C1400.87 149.391 1388.04 161.741 1369.63 161.741V163.741C1389.01 163.741 1402.54 150.728 1406.88 137.186L1404.98 136.576ZM1369.63 161.741C1357.48 161.741 1346.48 158.675 1338.5 150.123C1330.51 141.556 1325.37 127.304 1325.37 104.556H1323.37C1323.37 127.561 1328.56 142.401 1337.04 151.488C1345.53 160.59 1357.16 163.741 1369.63 163.741V161.741ZM1325.37 104.556C1325.37 81.8092 1330.51 67.5572 1338.5 58.9898C1346.48 50.4379 1357.48 47.3723 1369.63 47.3723V45.3723C1357.16 45.3723 1345.53 48.523 1337.04 57.6253C1328.56 66.7121 1323.37 81.5521 1323.37 104.556H1325.37ZM1369.63 47.3723C1388.35 47.3723 1401.14 58.7843 1404.98 70.7962L1406.88 70.1866C1402.77 57.3334 1389.2 45.3723 1369.63 45.3723V47.3723ZM1406.93 70.4914V20.0154H1404.93V70.4914H1406.93ZM1406.93 20.0154C1406.93 15.4418 1405.99 12.3314 1403.75 10.4274C1401.56 8.55901 1398.37 8.07485 1394.49 8.07485V10.0749C1398.32 10.0749 1400.85 10.5853 1402.45 11.9494C1404.01 13.2778 1404.93 15.6377 1404.93 20.0154H1406.93ZM1395.49 9.07485V2.60995H1393.49V9.07485H1395.49ZM1394.49 3.60995H1429.8V1.60995H1394.49V3.60995ZM1375.84 151.805C1383.05 151.805 1390.88 149.222 1396.88 141.93C1402.86 134.662 1406.93 122.84 1406.93 104.556H1404.93C1404.93 122.576 1400.92 133.878 1395.34 140.659C1389.78 147.416 1382.56 149.805 1375.84 149.805V151.805ZM1406.93 104.556C1406.93 86.2732 1402.86 74.4507 1396.88 67.1829C1390.88 59.891 1383.05 57.3075 1375.84 57.3075V59.3075C1382.56 59.3075 1389.78 61.6971 1395.34 68.4539C1400.92 75.2348 1404.93 86.5368 1404.93 104.556H1406.93ZM1375.84 57.3075C1370.4 57.3075 1365.92 58.6081 1362.29 61.0309C1358.67 63.4506 1355.96 66.9434 1353.96 71.2174C1349.98 79.7272 1348.74 91.4784 1348.74 104.556H1350.74C1350.74 91.5263 1351.98 80.153 1355.77 72.0654C1357.65 68.0408 1360.15 64.8666 1363.4 62.6941C1366.65 60.5245 1370.73 59.3075 1375.84 59.3075V57.3075ZM1348.74 104.556C1348.74 117.748 1349.85 129.503 1353.77 137.984C1355.74 142.247 1358.44 145.72 1362.09 148.121C1365.74 150.524 1370.28 151.805 1375.84 151.805V149.805C1370.59 149.805 1366.46 148.6 1363.19 146.45C1359.92 144.298 1357.44 141.15 1355.59 137.145C1351.86 129.091 1350.74 117.722 1350.74 104.556H1348.74ZM1496 90.632L1496.26 89.6673L1496.26 89.6661L1496 90.632ZM1515.15 95.8537L1514.88 96.8185L1514.88 96.8192L1515.15 95.8537ZM1455.47 144.838H1454.47V145.182L1454.68 145.453L1455.47 144.838ZM1455.47 113.757V112.757H1454.47V113.757H1455.47ZM1459.7 113.757L1460.68 113.564L1460.52 112.757H1459.7V113.757ZM1505.2 114.254L1505.45 113.286L1505.45 113.286L1505.2 114.254ZM1483.07 108.535L1483.32 107.567L1483.32 107.566L1483.07 108.535ZM1537.03 58.3075L1538.02 58.2231L1537.99 57.8149L1537.68 57.5483L1537.03 58.3075ZM1539.51 87.6482L1539.63 88.6414L1540.59 88.5283L1540.51 87.5638L1539.51 87.6482ZM1535.29 88.1455L1534.35 88.4913L1534.62 89.2308L1535.4 89.1387L1535.29 88.1455ZM1495.74 91.5968L1514.88 96.8185L1515.41 94.8889L1496.26 89.6673L1495.74 91.5968ZM1514.88 96.8192C1525.79 99.7592 1532.4 104.437 1536.3 110.039C1540.21 115.652 1541.5 122.323 1541.5 129.421H1543.5C1543.5 122.099 1542.17 114.969 1537.94 108.896C1533.7 102.811 1526.63 97.9158 1515.41 94.8882L1514.88 96.8192ZM1541.5 129.421C1541.5 136.418 1539.95 141.892 1537.39 146.179C1534.84 150.466 1531.24 153.622 1527.06 155.929C1518.68 160.56 1508.01 161.741 1498.98 161.741V163.741C1508.11 163.741 1519.2 162.559 1528.03 157.679C1532.46 155.231 1536.34 151.844 1539.11 147.203C1541.88 142.562 1543.5 136.722 1543.5 129.421H1541.5ZM1498.98 161.741C1475.42 161.741 1462.28 151.938 1456.26 144.222L1454.68 145.453C1461.09 153.652 1474.8 163.741 1498.98 163.741V161.741ZM1456.47 144.838V113.757H1454.47V144.838H1456.47ZM1455.47 114.757H1459.7V112.757H1455.47V114.757ZM1458.71 113.949C1461.23 126.763 1465.96 136.243 1472.69 142.523C1479.43 148.817 1488.08 151.805 1498.24 151.805V149.805C1488.5 149.805 1480.37 146.951 1474.05 141.061C1467.73 135.156 1463.14 126.112 1460.68 113.564L1458.71 113.949ZM1498.24 151.805C1505.35 151.805 1511.31 150.093 1515.53 146.671C1519.77 143.225 1522.11 138.137 1522.11 131.659H1520.11C1520.11 137.614 1517.98 142.099 1514.27 145.118C1510.52 148.161 1505.05 149.805 1498.24 149.805V151.805ZM1522.11 131.659C1522.11 126.843 1520.67 122.92 1517.8 119.849C1514.95 116.802 1510.78 114.681 1505.45 113.286L1504.95 115.221C1510.06 116.562 1513.84 118.543 1516.34 121.215C1518.82 123.864 1520.11 127.275 1520.11 131.659H1522.11ZM1505.45 113.286L1483.32 107.567L1482.82 109.503L1504.95 115.222L1505.45 113.286ZM1483.32 107.566C1475.24 105.485 1469.16 102.144 1465.1 97.6685C1461.06 93.2099 1458.96 87.5522 1458.96 80.6861H1456.96C1456.96 87.993 1459.21 94.1461 1463.62 99.0119C1468.01 103.861 1474.49 107.358 1482.82 109.503L1483.32 107.566ZM1458.96 80.6861C1458.96 71.271 1462.69 62.9771 1469.76 57.0209C1476.84 51.054 1487.35 47.3723 1500.97 47.3723V45.3723C1487 45.3723 1476 49.1502 1468.47 55.4914C1460.93 61.8435 1456.96 70.7064 1456.96 80.6861H1458.96ZM1500.97 47.3723C1514.71 47.3723 1527.89 51.7927 1536.38 59.0668L1537.68 57.5483C1528.76 49.9034 1515.08 45.3723 1500.97 45.3723V47.3723ZM1536.03 58.392L1538.52 87.7327L1540.51 87.5638L1538.02 58.2231L1536.03 58.392ZM1539.4 86.6551L1535.17 87.1524L1535.4 89.1387L1539.63 88.6414L1539.4 86.6551ZM1536.22 87.7998C1532.72 78.2805 1528.42 70.6542 1522.72 65.4046C1516.99 60.1273 1509.91 57.3075 1500.97 57.3075V59.3075C1509.44 59.3075 1516.03 61.9581 1521.37 66.8755C1526.73 71.8205 1530.89 79.1132 1534.35 88.4913L1536.22 87.7998ZM1500.97 57.3075C1494.71 57.3075 1489.07 59.0329 1484.98 62.1425C1480.87 65.2656 1478.34 69.7762 1478.34 75.2157H1480.34C1480.34 70.4606 1482.53 66.5172 1486.19 63.7348C1489.87 60.939 1495.05 59.3075 1500.97 59.3075V57.3075ZM1478.34 75.2157C1478.34 79.075 1479.05 82.3052 1481.74 85.0251C1484.36 87.6799 1488.74 89.724 1495.74 91.598L1496.26 89.6661C1489.33 87.8104 1485.39 85.8761 1483.16 83.62C1481 81.429 1480.34 78.816 1480.34 75.2157H1478.34Z" fill="white" mask="url(#path-1-inside-1_1_874)"/>
<defs>
<filter id="filter0_i_1_874" x="0.0682373" y="0.123535" width="1542.43" height="209.115" filterUnits="userSpaceOnUse" color-interpolation-filters="sRGB">
<feFlood flood-opacity="0" result="BackgroundImageFix"/>
<feBlend mode="normal" in="SourceGraphic" in2="BackgroundImageFix" result="shape"/>
<feColorMatrix in="SourceAlpha" type="matrix" values="0 0 0 0 0 0 0 0 0 0 0 0 0 0 0 0 0 0 127 0" result="hardAlpha"/>
<feOffset/>
<feGaussianBlur stdDeviation="10"/>
<feComposite in2="hardAlpha" operator="arithmetic" k2="-1" k3="1"/>
<feColorMatrix type="matrix" values="0 0 0 0 1 0 0 0 0 0.877308 0 0 0 0 0.824327 0 0 0 0.7 0"/>
<feBlend mode="normal" in2="shape" result="effect1_innerShadow_1_874"/>
</filter>
<linearGradient id="paint0_linear_1_874" x1="183" y1="5" x2="183" y2="208" gradientUnits="userSpaceOnUse">
<stop offset="0.45"/>
<stop offset="1" stop-color="#D1AD83"/>
</linearGradient>
</defs>
</svg>
