<svg width="44" height="43" viewBox="0 0 44 43" fill="none" xmlns="http://www.w3.org/2000/svg">
<path d="M16.3847 37.6672C12.0714 37.6672 8.05061 36.4126 4.66638 34.248C7.53971 34.4339 12.6105 33.9886 15.7645 30.9802C11.0198 30.7625 8.88006 27.1235 8.60097 25.5684C9.00411 25.7239 10.9268 25.9106 12.0122 25.4751C6.55425 24.1066 5.71695 19.3169 5.90302 17.8551C6.92638 18.5705 8.66299 18.8193 9.34523 18.7571C4.25944 15.1181 6.08908 9.64417 6.9884 8.46229C10.6381 13.5187 16.108 16.3586 22.8749 16.5165C22.7473 15.957 22.6799 15.3744 22.6799 14.776C22.6799 10.4817 26.1509 7.00049 30.4326 7.00049C32.6698 7.00049 34.6856 7.95083 36.1006 9.47094C37.5956 9.12063 39.8455 8.30058 40.9453 7.59143C40.3909 9.58196 38.665 11.2425 37.6209 11.8579C37.6124 11.8369 37.6296 11.8789 37.6209 11.8579C38.538 11.7192 41.0194 11.2423 41.9997 10.5772C41.5149 11.6955 39.685 13.5548 38.1833 14.5957C38.4627 26.9179 29.035 37.6672 16.3847 37.6672Z" fill="white"/>
</svg>
