<svg width="43" height="43" viewBox="0 0 43 43" fill="none" xmlns="http://www.w3.org/2000/svg">
<path d="M30.6664 14.3335C30.6664 15.4381 29.7709 16.3335 28.6664 16.3335C27.5618 16.3335 26.6664 15.4381 26.6664 14.3335C26.6664 13.2289 27.5618 12.3335 28.6664 12.3335C29.7709 12.3335 30.6664 13.2289 30.6664 14.3335Z" fill="white"/>
<path fill-rule="evenodd" clip-rule="evenodd" d="M21.333 28.3335C25.0149 28.3335 27.9997 25.3487 27.9997 21.6668C27.9997 17.9849 25.0149 15.0002 21.333 15.0002C17.6511 15.0002 14.6664 17.9849 14.6664 21.6668C14.6664 25.3487 17.6511 28.3335 21.333 28.3335ZM21.333 25.6668C23.5422 25.6668 25.333 23.876 25.333 21.6668C25.333 19.4577 23.5422 17.6668 21.333 17.6668C19.1239 17.6668 17.333 19.4577 17.333 21.6668C17.333 23.876 19.1239 25.6668 21.333 25.6668Z" fill="white"/>
<path fill-rule="evenodd" clip-rule="evenodd" d="M7.99969 21.1335C7.99969 16.6531 7.99969 14.4129 8.87164 12.7016C9.63863 11.1963 10.8625 9.97243 12.3678 9.20544C14.0791 8.3335 16.3193 8.3335 20.7997 8.3335H21.8664C26.3468 8.3335 28.587 8.3335 30.2983 9.20544C31.8036 9.97243 33.0274 11.1963 33.7944 12.7016C34.6664 14.4129 34.6664 16.6531 34.6664 21.1335V22.2002C34.6664 26.6806 34.6664 28.9208 33.7944 30.6321C33.0274 32.1374 31.8036 33.3612 30.2983 34.1282C28.587 35.0002 26.3468 35.0002 21.8664 35.0002H20.7997C16.3193 35.0002 14.0791 35.0002 12.3678 34.1282C10.8625 33.3612 9.63863 32.1374 8.87164 30.6321C7.99969 28.9208 7.99969 26.6806 7.99969 22.2002V21.1335ZM20.7997 11.0002H21.8664C24.1506 11.0002 25.7034 11.0022 26.9036 11.1003C28.0727 11.1958 28.6706 11.369 29.0876 11.5815C30.0912 12.0928 30.9071 12.9087 31.4184 13.9122C31.6309 14.3293 31.804 14.9272 31.8996 16.0963C31.9976 17.2965 31.9997 18.8493 31.9997 21.1335V22.2002C31.9997 24.4844 31.9976 26.0372 31.8996 27.2374C31.804 28.4065 31.6309 29.0044 31.4184 29.4214C30.9071 30.425 30.0912 31.2409 29.0876 31.7522C28.6706 31.9647 28.0727 32.1378 26.9036 32.2334C25.7034 32.3314 24.1506 32.3335 21.8664 32.3335H20.7997C18.5155 32.3335 16.9627 32.3314 15.7625 32.2334C14.5934 32.1378 13.9955 31.9647 13.5784 31.7522C12.5749 31.2409 11.759 30.425 11.2477 29.4214C11.0352 29.0044 10.862 28.4065 10.7665 27.2374C10.6684 26.0372 10.6664 24.4844 10.6664 22.2002V21.1335C10.6664 18.8493 10.6684 17.2965 10.7665 16.0963C10.862 14.9272 11.0352 14.3293 11.2477 13.9122C11.759 12.9087 12.5749 12.0928 13.5784 11.5815C13.9955 11.369 14.5934 11.1958 15.7625 11.1003C16.9627 11.0022 18.5155 11.0002 20.7997 11.0002Z" fill="white"/>
</svg>
